<mxfile host="app.diagrams.net" modified="2023-03-29T07:55:53.348Z" agent="Mozilla/5.0 (Windows NT 10.0; Win64; x64) AppleWebKit/537.36 (KHTML, like Gecko) Chrome/111.0.0.0 Safari/537.36" etag="czmiRaww-xRbWPRX3WmC" version="21.1.1" type="device">
  <diagram name="Page-1" id="Fff_1rQwhQrqFIlLPplu">
    <mxGraphModel dx="1880" dy="796" grid="1" gridSize="10" guides="1" tooltips="1" connect="1" arrows="1" fold="1" page="1" pageScale="1" pageWidth="850" pageHeight="1100" math="0" shadow="0">
      <root>
        <mxCell id="0" />
        <mxCell id="1" parent="0" />
        <mxCell id="dt2jrM-_LlT6N3b3fAyN-1" value="" style="swimlane;startSize=0;" parent="1" vertex="1">
          <mxGeometry x="240" y="80" width="340" height="780" as="geometry" />
        </mxCell>
        <mxCell id="dt2jrM-_LlT6N3b3fAyN-2" value="Category" style="ellipse;whiteSpace=wrap;html=1;" parent="dt2jrM-_LlT6N3b3fAyN-1" vertex="1">
          <mxGeometry x="7.5" y="10" width="322.5" height="30" as="geometry" />
        </mxCell>
        <mxCell id="dt2jrM-_LlT6N3b3fAyN-18" value="Advance Claim (Foreign, Local, Other)" style="ellipse;whiteSpace=wrap;html=1;" parent="dt2jrM-_LlT6N3b3fAyN-1" vertex="1">
          <mxGeometry x="7.5" y="410" width="322.5" height="30" as="geometry" />
        </mxCell>
        <mxCell id="dt2jrM-_LlT6N3b3fAyN-17" value="Proceed Foreign Travel Plan" style="ellipse;whiteSpace=wrap;html=1;" parent="dt2jrM-_LlT6N3b3fAyN-1" vertex="1">
          <mxGeometry x="7.5" y="370" width="322.5" height="30" as="geometry" />
        </mxCell>
        <mxCell id="dt2jrM-_LlT6N3b3fAyN-16" value="Approve/Reject Travel Plan" style="ellipse;whiteSpace=wrap;html=1;" parent="dt2jrM-_LlT6N3b3fAyN-1" vertex="1">
          <mxGeometry x="7.5" y="330" width="322.5" height="30" as="geometry" />
        </mxCell>
        <mxCell id="dt2jrM-_LlT6N3b3fAyN-15" value="Cancel Local Travel Plan" style="ellipse;whiteSpace=wrap;html=1;" parent="dt2jrM-_LlT6N3b3fAyN-1" vertex="1">
          <mxGeometry x="7.5" y="290" width="322.5" height="30" as="geometry" />
        </mxCell>
        <mxCell id="dt2jrM-_LlT6N3b3fAyN-14" value="Delete Local Travel Plan" style="ellipse;whiteSpace=wrap;html=1;" parent="dt2jrM-_LlT6N3b3fAyN-1" vertex="1">
          <mxGeometry x="7.5" y="250" width="322.5" height="30" as="geometry" />
        </mxCell>
        <mxCell id="dt2jrM-_LlT6N3b3fAyN-13" value="Edit Local Travel Plan" style="ellipse;whiteSpace=wrap;html=1;" parent="dt2jrM-_LlT6N3b3fAyN-1" vertex="1">
          <mxGeometry x="7.5" y="210" width="322.5" height="30" as="geometry" />
        </mxCell>
        <mxCell id="dt2jrM-_LlT6N3b3fAyN-12" value="Add Local/Foreign Travel Plan" style="ellipse;whiteSpace=wrap;html=1;" parent="dt2jrM-_LlT6N3b3fAyN-1" vertex="1">
          <mxGeometry x="7.5" y="170" width="322.5" height="30" as="geometry" />
        </mxCell>
        <mxCell id="dt2jrM-_LlT6N3b3fAyN-11" value="Tag Coordinator" style="ellipse;whiteSpace=wrap;html=1;" parent="dt2jrM-_LlT6N3b3fAyN-1" vertex="1">
          <mxGeometry x="7.5" y="130" width="322.5" height="30" as="geometry" />
        </mxCell>
        <mxCell id="dt2jrM-_LlT6N3b3fAyN-5" value="Currency Rate" style="ellipse;whiteSpace=wrap;html=1;" parent="dt2jrM-_LlT6N3b3fAyN-1" vertex="1">
          <mxGeometry x="7.5" y="90" width="322.5" height="30" as="geometry" />
        </mxCell>
        <mxCell id="dt2jrM-_LlT6N3b3fAyN-3" value="Currency" style="ellipse;whiteSpace=wrap;html=1;" parent="dt2jrM-_LlT6N3b3fAyN-1" vertex="1">
          <mxGeometry x="7.5" y="50" width="322.5" height="30" as="geometry" />
        </mxCell>
        <mxCell id="dt2jrM-_LlT6N3b3fAyN-19" value="Add Settlement (Foreign, Local, Other)" style="ellipse;whiteSpace=wrap;html=1;" parent="dt2jrM-_LlT6N3b3fAyN-1" vertex="1">
          <mxGeometry x="7.5" y="455" width="322.5" height="30" as="geometry" />
        </mxCell>
        <mxCell id="dt2jrM-_LlT6N3b3fAyN-20" value="Edit Settlement (Foreign, Local, Other)" style="ellipse;whiteSpace=wrap;html=1;" parent="dt2jrM-_LlT6N3b3fAyN-1" vertex="1">
          <mxGeometry x="7.5" y="500" width="322.5" height="30" as="geometry" />
        </mxCell>
        <mxCell id="dt2jrM-_LlT6N3b3fAyN-21" value="Approve/Reject Settlement" style="ellipse;whiteSpace=wrap;html=1;" parent="dt2jrM-_LlT6N3b3fAyN-1" vertex="1">
          <mxGeometry x="7.5" y="540" width="322.5" height="30" as="geometry" />
        </mxCell>
        <mxCell id="dt2jrM-_LlT6N3b3fAyN-22" value="Refund Request" style="ellipse;whiteSpace=wrap;html=1;" parent="dt2jrM-_LlT6N3b3fAyN-1" vertex="1">
          <mxGeometry x="8.75" y="580" width="322.5" height="30" as="geometry" />
        </mxCell>
        <mxCell id="dt2jrM-_LlT6N3b3fAyN-23" value="Approve/Reject Advance" style="ellipse;whiteSpace=wrap;html=1;" parent="dt2jrM-_LlT6N3b3fAyN-1" vertex="1">
          <mxGeometry x="7.5" y="620" width="322.5" height="30" as="geometry" />
        </mxCell>
        <mxCell id="dt2jrM-_LlT6N3b3fAyN-24" value="Approve/Reject Refund" style="ellipse;whiteSpace=wrap;html=1;" parent="dt2jrM-_LlT6N3b3fAyN-1" vertex="1">
          <mxGeometry x="8.75" y="660" width="322.5" height="30" as="geometry" />
        </mxCell>
        <mxCell id="dt2jrM-_LlT6N3b3fAyN-25" value="Request for information Settlement" style="ellipse;whiteSpace=wrap;html=1;" parent="dt2jrM-_LlT6N3b3fAyN-1" vertex="1">
          <mxGeometry x="8.75" y="700" width="322.5" height="30" as="geometry" />
        </mxCell>
        <mxCell id="dt2jrM-_LlT6N3b3fAyN-26" value="Response to an information Request" style="ellipse;whiteSpace=wrap;html=1;" parent="dt2jrM-_LlT6N3b3fAyN-1" vertex="1">
          <mxGeometry x="8.75" y="740" width="322.5" height="30" as="geometry" />
        </mxCell>
        <mxCell id="dt2jrM-_LlT6N3b3fAyN-28" value="IExpense" style="rounded=0;whiteSpace=wrap;html=1;" parent="1" vertex="1">
          <mxGeometry x="240" y="40" width="340" height="40" as="geometry" />
        </mxCell>
        <mxCell id="dt2jrM-_LlT6N3b3fAyN-30" value="Admin" style="shape=umlActor;verticalLabelPosition=bottom;verticalAlign=top;html=1;" parent="1" vertex="1">
          <mxGeometry x="70" y="200" width="30" height="60" as="geometry" />
        </mxCell>
        <mxCell id="dt2jrM-_LlT6N3b3fAyN-31" value="Coordinator" style="shape=umlActor;verticalLabelPosition=bottom;verticalAlign=top;html=1;" parent="1" vertex="1">
          <mxGeometry x="740" y="420" width="30" height="60" as="geometry" />
        </mxCell>
        <mxCell id="dt2jrM-_LlT6N3b3fAyN-32" value="Supervisor" style="shape=umlActor;verticalLabelPosition=bottom;verticalAlign=top;html=1;" parent="1" vertex="1">
          <mxGeometry x="740" y="250" width="30" height="60" as="geometry" />
        </mxCell>
        <mxCell id="dt2jrM-_LlT6N3b3fAyN-33" value="Travel Admin" style="shape=umlActor;verticalLabelPosition=bottom;verticalAlign=top;html=1;" parent="1" vertex="1">
          <mxGeometry x="80" y="660" width="30" height="60" as="geometry" />
        </mxCell>
        <mxCell id="dt2jrM-_LlT6N3b3fAyN-34" value="Employee" style="shape=umlActor;verticalLabelPosition=bottom;verticalAlign=top;html=1;" parent="1" vertex="1">
          <mxGeometry x="80" y="420" width="30" height="60" as="geometry" />
        </mxCell>
        <mxCell id="dt2jrM-_LlT6N3b3fAyN-39" value="Auditor" style="shape=umlActor;verticalLabelPosition=bottom;verticalAlign=top;html=1;" parent="1" vertex="1">
          <mxGeometry x="740" y="670" width="30" height="60" as="geometry" />
        </mxCell>
        <mxCell id="dt2jrM-_LlT6N3b3fAyN-46" value="" style="edgeStyle=none;orthogonalLoop=1;jettySize=auto;html=1;rounded=0;entryX=0;entryY=0.5;entryDx=0;entryDy=0;" parent="1" target="dt2jrM-_LlT6N3b3fAyN-2" edge="1">
          <mxGeometry width="100" relative="1" as="geometry">
            <mxPoint x="90" y="219.66" as="sourcePoint" />
            <mxPoint x="190" y="219.66" as="targetPoint" />
            <Array as="points" />
          </mxGeometry>
        </mxCell>
        <mxCell id="dt2jrM-_LlT6N3b3fAyN-47" value="" style="edgeStyle=none;orthogonalLoop=1;jettySize=auto;html=1;rounded=0;entryX=0;entryY=0.5;entryDx=0;entryDy=0;" parent="1" target="dt2jrM-_LlT6N3b3fAyN-3" edge="1">
          <mxGeometry width="100" relative="1" as="geometry">
            <mxPoint x="90" y="219.66" as="sourcePoint" />
            <mxPoint x="190" y="219.66" as="targetPoint" />
            <Array as="points" />
          </mxGeometry>
        </mxCell>
        <mxCell id="dt2jrM-_LlT6N3b3fAyN-48" value="" style="edgeStyle=none;orthogonalLoop=1;jettySize=auto;html=1;rounded=0;entryX=0;entryY=0.5;entryDx=0;entryDy=0;" parent="1" target="dt2jrM-_LlT6N3b3fAyN-5" edge="1">
          <mxGeometry width="100" relative="1" as="geometry">
            <mxPoint x="90" y="219.66" as="sourcePoint" />
            <mxPoint x="190" y="219.66" as="targetPoint" />
            <Array as="points" />
          </mxGeometry>
        </mxCell>
        <mxCell id="dt2jrM-_LlT6N3b3fAyN-49" value="" style="edgeStyle=none;orthogonalLoop=1;jettySize=auto;html=1;rounded=0;entryX=0;entryY=0.5;entryDx=0;entryDy=0;" parent="1" target="dt2jrM-_LlT6N3b3fAyN-11" edge="1">
          <mxGeometry width="100" relative="1" as="geometry">
            <mxPoint x="90" y="219.66" as="sourcePoint" />
            <mxPoint x="190" y="219.66" as="targetPoint" />
            <Array as="points" />
          </mxGeometry>
        </mxCell>
        <mxCell id="dt2jrM-_LlT6N3b3fAyN-50" value="" style="edgeStyle=none;orthogonalLoop=1;jettySize=auto;html=1;rounded=0;entryX=0;entryY=0.5;entryDx=0;entryDy=0;" parent="1" target="dt2jrM-_LlT6N3b3fAyN-12" edge="1">
          <mxGeometry width="100" relative="1" as="geometry">
            <mxPoint x="90" y="219.66" as="sourcePoint" />
            <mxPoint x="190" y="219.66" as="targetPoint" />
            <Array as="points" />
          </mxGeometry>
        </mxCell>
        <mxCell id="dt2jrM-_LlT6N3b3fAyN-51" value="" style="edgeStyle=none;orthogonalLoop=1;jettySize=auto;html=1;rounded=0;entryX=0;entryY=0.5;entryDx=0;entryDy=0;" parent="1" target="dt2jrM-_LlT6N3b3fAyN-13" edge="1">
          <mxGeometry width="100" relative="1" as="geometry">
            <mxPoint x="90" y="219.66" as="sourcePoint" />
            <mxPoint x="190" y="250" as="targetPoint" />
            <Array as="points" />
          </mxGeometry>
        </mxCell>
        <mxCell id="dt2jrM-_LlT6N3b3fAyN-52" value="" style="edgeStyle=none;orthogonalLoop=1;jettySize=auto;html=1;rounded=0;entryX=0;entryY=0.5;entryDx=0;entryDy=0;" parent="1" target="dt2jrM-_LlT6N3b3fAyN-14" edge="1">
          <mxGeometry width="100" relative="1" as="geometry">
            <mxPoint x="80" y="219.66" as="sourcePoint" />
            <mxPoint x="180" y="219.66" as="targetPoint" />
            <Array as="points" />
          </mxGeometry>
        </mxCell>
        <mxCell id="dt2jrM-_LlT6N3b3fAyN-53" value="" style="edgeStyle=none;orthogonalLoop=1;jettySize=auto;html=1;rounded=0;entryX=0;entryY=0.5;entryDx=0;entryDy=0;" parent="1" target="dt2jrM-_LlT6N3b3fAyN-12" edge="1">
          <mxGeometry width="100" relative="1" as="geometry">
            <mxPoint x="100" y="440" as="sourcePoint" />
            <mxPoint x="200" y="440" as="targetPoint" />
            <Array as="points" />
          </mxGeometry>
        </mxCell>
        <mxCell id="dt2jrM-_LlT6N3b3fAyN-54" value="" style="edgeStyle=none;orthogonalLoop=1;jettySize=auto;html=1;rounded=0;entryX=0;entryY=0.5;entryDx=0;entryDy=0;" parent="1" target="dt2jrM-_LlT6N3b3fAyN-18" edge="1">
          <mxGeometry width="100" relative="1" as="geometry">
            <mxPoint x="100" y="440" as="sourcePoint" />
            <mxPoint x="200" y="370" as="targetPoint" />
            <Array as="points" />
          </mxGeometry>
        </mxCell>
        <mxCell id="dt2jrM-_LlT6N3b3fAyN-55" value="" style="edgeStyle=none;orthogonalLoop=1;jettySize=auto;html=1;rounded=0;entryX=0;entryY=0.5;entryDx=0;entryDy=0;" parent="1" target="dt2jrM-_LlT6N3b3fAyN-19" edge="1">
          <mxGeometry width="100" relative="1" as="geometry">
            <mxPoint x="100" y="440" as="sourcePoint" />
            <mxPoint x="200" y="440" as="targetPoint" />
            <Array as="points" />
          </mxGeometry>
        </mxCell>
        <mxCell id="dt2jrM-_LlT6N3b3fAyN-56" value="" style="edgeStyle=none;orthogonalLoop=1;jettySize=auto;html=1;rounded=0;entryX=0;entryY=0.5;entryDx=0;entryDy=0;" parent="1" target="dt2jrM-_LlT6N3b3fAyN-13" edge="1">
          <mxGeometry width="100" relative="1" as="geometry">
            <mxPoint x="100" y="440" as="sourcePoint" />
            <mxPoint x="200" y="440" as="targetPoint" />
            <Array as="points" />
          </mxGeometry>
        </mxCell>
        <mxCell id="dt2jrM-_LlT6N3b3fAyN-57" value="" style="edgeStyle=none;orthogonalLoop=1;jettySize=auto;html=1;rounded=0;entryX=0;entryY=0.5;entryDx=0;entryDy=0;" parent="1" target="dt2jrM-_LlT6N3b3fAyN-14" edge="1">
          <mxGeometry width="100" relative="1" as="geometry">
            <mxPoint x="100" y="440" as="sourcePoint" />
            <mxPoint x="200" y="440" as="targetPoint" />
            <Array as="points" />
          </mxGeometry>
        </mxCell>
        <mxCell id="dt2jrM-_LlT6N3b3fAyN-58" value="" style="edgeStyle=none;orthogonalLoop=1;jettySize=auto;html=1;rounded=0;entryX=0;entryY=0.5;entryDx=0;entryDy=0;" parent="1" target="dt2jrM-_LlT6N3b3fAyN-15" edge="1">
          <mxGeometry width="100" relative="1" as="geometry">
            <mxPoint x="100" y="440" as="sourcePoint" />
            <mxPoint x="200" y="440" as="targetPoint" />
            <Array as="points" />
          </mxGeometry>
        </mxCell>
        <mxCell id="dt2jrM-_LlT6N3b3fAyN-59" value="" style="edgeStyle=none;orthogonalLoop=1;jettySize=auto;html=1;rounded=0;entryX=0;entryY=0.5;entryDx=0;entryDy=0;" parent="1" target="dt2jrM-_LlT6N3b3fAyN-22" edge="1">
          <mxGeometry width="100" relative="1" as="geometry">
            <mxPoint x="100" y="440" as="sourcePoint" />
            <mxPoint x="200" y="440" as="targetPoint" />
            <Array as="points" />
          </mxGeometry>
        </mxCell>
        <mxCell id="dt2jrM-_LlT6N3b3fAyN-60" value="" style="edgeStyle=none;orthogonalLoop=1;jettySize=auto;html=1;rounded=0;entryX=0;entryY=0.5;entryDx=0;entryDy=0;" parent="1" target="dt2jrM-_LlT6N3b3fAyN-26" edge="1">
          <mxGeometry width="100" relative="1" as="geometry">
            <mxPoint x="100" y="440" as="sourcePoint" />
            <mxPoint x="300" y="470" as="targetPoint" />
            <Array as="points" />
          </mxGeometry>
        </mxCell>
        <mxCell id="dt2jrM-_LlT6N3b3fAyN-61" value="" style="edgeStyle=none;orthogonalLoop=1;jettySize=auto;html=1;rounded=0;entryX=0;entryY=0.5;entryDx=0;entryDy=0;" parent="1" target="dt2jrM-_LlT6N3b3fAyN-22" edge="1">
          <mxGeometry width="100" relative="1" as="geometry">
            <mxPoint x="90" y="219.66000000000003" as="sourcePoint" />
            <mxPoint x="190" y="219.66000000000003" as="targetPoint" />
            <Array as="points" />
          </mxGeometry>
        </mxCell>
        <mxCell id="dt2jrM-_LlT6N3b3fAyN-62" value="" style="edgeStyle=none;orthogonalLoop=1;jettySize=auto;html=1;rounded=0;entryX=0;entryY=0.5;entryDx=0;entryDy=0;" parent="1" target="dt2jrM-_LlT6N3b3fAyN-17" edge="1">
          <mxGeometry width="100" relative="1" as="geometry">
            <mxPoint x="100" y="680" as="sourcePoint" />
            <mxPoint x="200" y="680" as="targetPoint" />
            <Array as="points" />
          </mxGeometry>
        </mxCell>
        <mxCell id="dt2jrM-_LlT6N3b3fAyN-63" value="" style="edgeStyle=none;orthogonalLoop=1;jettySize=auto;html=1;rounded=0;entryX=1;entryY=0.5;entryDx=0;entryDy=0;" parent="1" target="dt2jrM-_LlT6N3b3fAyN-20" edge="1">
          <mxGeometry width="100" relative="1" as="geometry">
            <mxPoint x="740" y="690" as="sourcePoint" />
            <mxPoint x="650" y="689.66" as="targetPoint" />
            <Array as="points" />
          </mxGeometry>
        </mxCell>
        <mxCell id="dt2jrM-_LlT6N3b3fAyN-64" value="" style="edgeStyle=none;orthogonalLoop=1;jettySize=auto;html=1;rounded=0;entryX=0;entryY=0.5;entryDx=0;entryDy=0;" parent="1" target="dt2jrM-_LlT6N3b3fAyN-18" edge="1">
          <mxGeometry width="100" relative="1" as="geometry">
            <mxPoint x="90" y="220" as="sourcePoint" />
            <mxPoint x="250" y="510" as="targetPoint" />
            <Array as="points" />
          </mxGeometry>
        </mxCell>
        <mxCell id="dt2jrM-_LlT6N3b3fAyN-65" value="" style="edgeStyle=none;orthogonalLoop=1;jettySize=auto;html=1;rounded=0;entryX=1;entryY=0.5;entryDx=0;entryDy=0;" parent="1" target="dt2jrM-_LlT6N3b3fAyN-21" edge="1">
          <mxGeometry width="100" relative="1" as="geometry">
            <mxPoint x="740" y="690" as="sourcePoint" />
            <mxPoint x="650" y="689.66" as="targetPoint" />
            <Array as="points" />
          </mxGeometry>
        </mxCell>
        <mxCell id="dt2jrM-_LlT6N3b3fAyN-66" value="" style="edgeStyle=none;orthogonalLoop=1;jettySize=auto;html=1;rounded=0;entryX=1;entryY=0.5;entryDx=0;entryDy=0;" parent="1" target="dt2jrM-_LlT6N3b3fAyN-23" edge="1">
          <mxGeometry width="100" relative="1" as="geometry">
            <mxPoint x="740" y="690" as="sourcePoint" />
            <mxPoint x="660" y="670" as="targetPoint" />
            <Array as="points" />
          </mxGeometry>
        </mxCell>
        <mxCell id="dt2jrM-_LlT6N3b3fAyN-67" value="" style="edgeStyle=none;orthogonalLoop=1;jettySize=auto;html=1;rounded=0;entryX=1;entryY=0.5;entryDx=0;entryDy=0;" parent="1" target="dt2jrM-_LlT6N3b3fAyN-24" edge="1">
          <mxGeometry width="100" relative="1" as="geometry">
            <mxPoint x="740" y="690" as="sourcePoint" />
            <mxPoint x="650" y="689.66" as="targetPoint" />
            <Array as="points" />
          </mxGeometry>
        </mxCell>
        <mxCell id="dt2jrM-_LlT6N3b3fAyN-68" value="" style="edgeStyle=none;orthogonalLoop=1;jettySize=auto;html=1;rounded=0;entryX=1;entryY=0.5;entryDx=0;entryDy=0;exitX=0;exitY=0.3333333333333333;exitDx=0;exitDy=0;exitPerimeter=0;" parent="1" source="dt2jrM-_LlT6N3b3fAyN-39" target="dt2jrM-_LlT6N3b3fAyN-25" edge="1">
          <mxGeometry width="100" relative="1" as="geometry">
            <mxPoint x="700" y="689.66" as="sourcePoint" />
            <mxPoint x="650" y="689.66" as="targetPoint" />
            <Array as="points" />
          </mxGeometry>
        </mxCell>
        <mxCell id="dt2jrM-_LlT6N3b3fAyN-69" value="" style="edgeStyle=none;orthogonalLoop=1;jettySize=auto;html=1;rounded=0;entryX=1;entryY=0.5;entryDx=0;entryDy=0;" parent="1" target="dt2jrM-_LlT6N3b3fAyN-20" edge="1">
          <mxGeometry width="100" relative="1" as="geometry">
            <mxPoint x="740" y="440" as="sourcePoint" />
            <mxPoint x="650" y="440" as="targetPoint" />
            <Array as="points" />
          </mxGeometry>
        </mxCell>
        <mxCell id="dt2jrM-_LlT6N3b3fAyN-70" value="" style="edgeStyle=none;orthogonalLoop=1;jettySize=auto;html=1;rounded=0;entryX=1;entryY=0.5;entryDx=0;entryDy=0;exitX=0;exitY=0.3333333333333333;exitDx=0;exitDy=0;exitPerimeter=0;" parent="1" source="dt2jrM-_LlT6N3b3fAyN-31" target="dt2jrM-_LlT6N3b3fAyN-19" edge="1">
          <mxGeometry width="100" relative="1" as="geometry">
            <mxPoint x="700" y="440" as="sourcePoint" />
            <mxPoint x="650" y="440" as="targetPoint" />
            <Array as="points" />
          </mxGeometry>
        </mxCell>
        <mxCell id="dt2jrM-_LlT6N3b3fAyN-71" value="" style="edgeStyle=none;orthogonalLoop=1;jettySize=auto;html=1;rounded=0;entryX=1;entryY=0.5;entryDx=0;entryDy=0;" parent="1" target="dt2jrM-_LlT6N3b3fAyN-16" edge="1">
          <mxGeometry width="100" relative="1" as="geometry">
            <mxPoint x="740" y="270" as="sourcePoint" />
            <mxPoint x="660" y="210" as="targetPoint" />
            <Array as="points" />
          </mxGeometry>
        </mxCell>
        <mxCell id="dt2jrM-_LlT6N3b3fAyN-72" value="" style="edgeStyle=none;orthogonalLoop=1;jettySize=auto;html=1;rounded=0;entryX=1;entryY=0.5;entryDx=0;entryDy=0;" parent="1" target="dt2jrM-_LlT6N3b3fAyN-23" edge="1">
          <mxGeometry width="100" relative="1" as="geometry">
            <mxPoint x="740" y="270" as="sourcePoint" />
            <mxPoint x="600" y="782.758578596444" as="targetPoint" />
            <Array as="points" />
          </mxGeometry>
        </mxCell>
        <mxCell id="dt2jrM-_LlT6N3b3fAyN-73" value="" style="edgeStyle=none;orthogonalLoop=1;jettySize=auto;html=1;rounded=0;entryX=1;entryY=0.5;entryDx=0;entryDy=0;exitX=0;exitY=0.3333333333333333;exitDx=0;exitDy=0;exitPerimeter=0;" parent="1" source="dt2jrM-_LlT6N3b3fAyN-32" target="dt2jrM-_LlT6N3b3fAyN-21" edge="1">
          <mxGeometry width="100" relative="1" as="geometry">
            <mxPoint x="710" y="210" as="sourcePoint" />
            <mxPoint x="660" y="210" as="targetPoint" />
            <Array as="points" />
          </mxGeometry>
        </mxCell>
      </root>
    </mxGraphModel>
  </diagram>
</mxfile>
